<!--?xml version="1.0" standalone="no"?-->
              <svg id="sw-js-blob-svg" viewBox="0 0 100 100" xmlns="http://www.w3.org/2000/svg" version="1.1">
                    <defs> 
                        <linearGradient id="sw-gradient" x1="0" x2="1" y1="1" y2="0">
                            <stop id="stop1" stop-color="rgba(231.165, 74.26, 0, 1)" offset="0%"></stop>
                            <stop id="stop2" stop-color="rgba(251, 168, 31, 1)" offset="100%"></stop>
                        </linearGradient>
                    </defs>
                <path fill="url(#sw-gradient)" d="M20.9,-37.3C26.7,-32.7,31,-26.5,34.7,-20C38.5,-13.5,41.9,-6.8,41.8,0C41.7,6.7,38.2,13.4,34,19C29.7,24.6,24.6,29.2,18.8,32.2C13,35.1,6.5,36.4,-0.7,37.6C-7.8,38.7,-15.7,39.8,-21.3,36.7C-26.8,33.6,-30.2,26.5,-32.6,19.7C-35.1,12.9,-36.7,6.4,-37.3,-0.3C-37.9,-7.1,-37.4,-14.2,-34.5,-20.2C-31.6,-26.3,-26.2,-31.2,-20.1,-35.6C-13.9,-39.9,-7,-43.8,0.3,-44.2C7.5,-44.7,15,-41.8,20.9,-37.3Z" width="100%" height="100%" transform="translate(50 50)" stroke-width="0" style="transition: all 0.3s ease 0s;"></path>
              </svg>